<?xml version="1.0" standalone="no"?>
<!DOCTYPE svg PUBLIC "-//W3C//DTD SVG 20010904//EN"
 "http://www.w3.org/TR/2001/REC-SVG-20010904/DTD/svg10.dtd">
<svg version="1.0" xmlns="http://www.w3.org/2000/svg"
 width="1024.000000pt" height="1024.000000pt" viewBox="0 0 1024.000000 1024.000000"
 preserveAspectRatio="xMidYMid meet">

<g transform="translate(0.000000,1024.000000) scale(0.100000,-0.100000)"
fill="#000000" stroke="none">
<path d="M3180 8070 c-110 -14 -232 -71 -309 -143 -50 -48 -109 -142 -133
-216 -20 -61 -22 -87 -22 -361 l-1 -295 -110 -5 c-128 -6 -159 -21 -194 -93
-19 -38 -21 -61 -21 -193 1 -199 18 -245 105 -285 29 -14 64 -19 130 -19 l91
0 -1 -267 0 -268 -105 -5 c-119 -6 -157 -21 -193 -80 -20 -31 -22 -51 -25
-195 -4 -169 3 -213 40 -260 36 -46 91 -65 191 -65 l87 0 0 -47 c0 -27 2 -145
3 -263 l2 -215 -103 -6 c-88 -6 -108 -10 -143 -33 -67 -45 -79 -84 -78 -261 0
-200 17 -246 104 -286 29 -13 64 -19 127 -19 l86 0 5 -52 c3 -29 4 -345 3
-703 -1 -357 1 -683 6 -724 14 -140 103 -283 225 -364 136 -90 -89 -82 2213
-82 1962 0 2037 1 2090 19 156 53 306 179 373 313 73 148 68 -52 65 2608 l-3
2390 -24 64 c-31 82 -111 201 -167 249 -70 59 -162 110 -249 140 l-80 27
-1965 1 c-1081 1 -1990 -2 -2020 -6z m3935 -230 c140 -21 256 -104 318 -229
l32 -66 3 -2017 2 -2018 -2265 0 -2265 0 0 340 0 340 138 0 c155 0 193 8 235
47 53 51 57 68 57 253 0 182 -4 203 -52 247 -46 44 -88 53 -238 53 l-140 0 0
265 0 265 138 0 c75 0 153 5 172 10 41 11 94 61 109 103 6 16 11 101 11 195 0
154 -2 170 -23 207 -14 26 -37 48 -67 63 -40 20 -59 22 -192 22 l-147 0 -3
269 -3 269 160 4 c146 3 163 5 197 26 66 41 78 83 78 273 0 151 -2 167 -23
203 -43 76 -57 81 -243 84 l-165 3 3 292 3 292 27 45 c51 86 132 144 225 160
73 12 3833 12 3918 0z m355 -4784 c0 -195 -3 -232 -20 -287 -35 -112 -132
-213 -250 -262 l-55 -22 -1990 0 -1990 0 -43 23 c-66 35 -119 88 -149 150 -28
56 -28 60 -28 242 0 173 1 188 22 225 41 73 94 118 166 141 34 10 456 13 2190
13 l2147 1 0 -224z"/>
<path d="M3706 6174 c-3 -9 -6 -204 -6 -434 0 -355 2 -419 15 -430 10 -9 65
-11 202 -8 167 3 193 6 235 25 75 34 113 69 149 136 l34 62 0 215 0 215 -33
67 c-38 77 -84 120 -160 148 -46 17 -78 20 -241 20 -163 0 -190 -2 -195 -16z
m374 -153 c21 -11 44 -36 58 -62 22 -42 23 -52 20 -229 -3 -173 -4 -187 -25
-216 -34 -48 -85 -67 -178 -68 l-80 -1 -3 298 -2 297 88 0 c66 0 96 -5 122
-19z"/>
<path d="M4517 6184 c-4 -4 -7 -202 -7 -440 0 -489 -9 -444 90 -444 36 0 62 5
69 14 8 9 10 134 9 442 l-3 429 -75 3 c-42 1 -79 0 -83 -4z"/>
<path d="M5073 6178 c-6 -7 -17 -35 -25 -63 -9 -27 -39 -126 -68 -220 -120
-392 -171 -569 -166 -582 4 -11 24 -13 83 -11 l78 3 28 88 29 87 137 0 138 0
22 -77 c13 -43 27 -84 33 -90 16 -19 157 -18 164 2 3 8 -54 207 -128 442
l-133 428 -91 3 c-65 2 -94 -1 -101 -10z m143 -387 c24 -83 44 -156 44 -161 0
-6 -40 -10 -95 -10 -52 0 -95 2 -95 5 0 3 15 58 34 123 19 64 40 137 46 161 6
23 14 41 16 38 3 -3 25 -73 50 -156z"/>
<path d="M5662 6178 c-9 -9 -12 -120 -12 -440 l0 -428 23 -5 c13 -4 50 -5 82
-3 l60 3 3 148 3 147 49 0 49 0 76 -150 76 -150 85 0 c63 0 86 4 90 14 3 7
-29 82 -70 165 -42 83 -76 152 -76 155 0 2 18 16 40 31 26 18 49 47 67 84 25
50 28 67 27 151 -1 144 -41 216 -149 266 -47 22 -62 24 -230 24 -128 0 -185
-4 -193 -12z m347 -163 c76 -64 64 -219 -20 -262 -13 -7 -57 -13 -96 -13 l-73
0 0 150 0 150 79 0 c70 0 83 -3 110 -25z"/>
<path d="M6330 6184 c0 -11 71 -164 164 -354 l91 -185 5 -170 5 -170 68 -3
c42 -2 74 2 83 9 11 9 14 46 14 174 l0 162 46 94 c92 188 192 405 196 424 3
19 -4 20 -85 23 l-88 3 -33 -73 c-18 -40 -53 -121 -77 -180 -38 -95 -59 -130
-59 -98 0 14 -130 322 -142 338 -11 12 -188 18 -188 6z"/>
<path d="M3503 3013 c-34 -6 -83 -68 -83 -104 0 -37 23 -83 52 -103 20 -14
185 -16 1580 -16 l1558 0 30 28 c59 52 48 152 -20 187 -26 13 -210 15 -1562
14 -843 -1 -1543 -4 -1555 -6z"/>
</g>
</svg>
