<?xml version="1.0" standalone="no"?>
<!DOCTYPE svg PUBLIC "-//W3C//DTD SVG 20010904//EN"
 "http://www.w3.org/TR/2001/REC-SVG-20010904/DTD/svg10.dtd">
<svg version="1.0" xmlns="http://www.w3.org/2000/svg"
 width="1024.000000pt" height="1024.000000pt" viewBox="0 0 1024.000000 1024.000000"
 preserveAspectRatio="xMidYMid meet">

<g transform="translate(0.000000,1024.000000) scale(0.100000,-0.100000)"
fill="#000000" stroke="none">
<path d="M6125 7933 c-16 -2 -195 -26 -397 -53 -202 -27 -377 -54 -388 -60
-34 -18 -53 -57 -47 -98 2 -20 32 -84 64 -142 70 -123 116 -160 206 -168 51
-4 733 87 809 108 53 15 81 54 75 105 -4 41 -90 200 -130 243 -44 47 -124 74
-192 65z m-195 -168 c10 -12 9 -16 -4 -21 -18 -7 -49 13 -40 27 8 14 30 11 44
-6z m-75 -25 c3 -11 15 -20 25 -20 10 0 20 -7 24 -15 3 -9 0 -15 -9 -15 -12 0
-12 -5 2 -35 9 -20 24 -35 34 -35 9 0 19 -7 23 -15 4 -12 -3 -15 -30 -15 -29
0 -38 5 -52 32 -9 17 -28 43 -41 57 -15 15 -20 26 -13 29 8 2 9 9 2 22 -7 13
-6 20 3 23 21 9 26 7 32 -13z m379 -6 c14 -15 26 -30 26 -34 0 -4 -20 -11 -45
-15 -25 -3 -43 -10 -40 -16 8 -13 42 -11 65 3 23 15 34 6 26 -20 -16 -50 -112
-27 -140 33 -19 40 -20 47 -4 63 22 22 83 14 112 -14z m-130 -21 c3 -21 6 -53
6 -70 0 -28 -4 -33 -22 -32 -32 1 -124 107 -108 123 9 8 22 0 52 -34 l41 -45
-7 48 c-7 42 -5 47 12 47 15 0 21 -9 26 -37z m-440 -63 c63 -72 72 -85 54 -88
-11 -2 -30 6 -43 18 -18 17 -30 20 -53 16 -24 -6 -28 -11 -24 -31 4 -21 0 -25
-20 -25 -24 0 -25 3 -32 92 -7 92 -1 112 31 105 6 -1 45 -40 87 -87z m314 18
c26 -47 30 -63 20 -69 -21 -14 -22 -12 -56 56 -37 76 -37 75 -14 75 11 0 29
-23 50 -62z m-180 26 c34 -24 27 -35 -18 -28 -34 6 -40 4 -40 -11 0 -10 7 -27
17 -37 17 -19 43 -24 43 -9 0 16 41 20 47 5 18 -48 -77 -61 -119 -16 -38 40
-43 67 -19 91 25 25 58 27 89 5z"/>
<path d="M6155 7720 c-4 -6 7 -10 25 -10 18 0 29 4 25 10 -3 6 -15 10 -25 10
-10 0 -22 -4 -25 -10z"/>
<path d="M5586 7665 c8 -37 9 -38 27 -33 12 2 10 9 -9 33 l-25 30 7 -30z"/>
<path d="M3370 7673 c-66 -5 -75 -10 -59 -29 10 -13 25 -15 66 -11 l53 6 0
-101 c0 -87 2 -99 16 -94 9 3 20 6 25 6 12 0 11 187 -1 211 -6 11 -20 18 -33
17 -12 -1 -42 -3 -67 -5z"/>
<path d="M3197 7632 c-32 -35 -13 -79 22 -48 16 15 20 10 61 -69 35 -70 47
-85 66 -85 13 0 24 3 24 8 -1 4 -24 52 -53 107 -43 83 -56 101 -78 103 -15 2
-32 -5 -42 -16z"/>
<path d="M2857 7592 c-10 -10 -17 -29 -17 -42 0 -35 38 -106 71 -134 65 -55
149 -39 149 28 0 45 -39 116 -80 144 -41 27 -100 29 -123 4z m109 -47 c32 -35
53 -93 39 -114 -18 -31 -66 2 -99 66 -26 51 -20 79 18 82 5 1 24 -15 42 -34z"/>
<path d="M2701 7566 c-20 -21 -21 -27 -10 -47 l12 -23 18 22 c17 22 18 22 62
-65 35 -69 49 -87 64 -85 10 2 19 5 21 7 2 1 -21 50 -50 109 -58 116 -74 128
-117 82z"/>
<path d="M2368 7543 c-21 -2 -38 -8 -38 -12 0 -4 11 -34 24 -67 21 -50 28 -59
48 -56 12 1 26 9 31 17 12 21 32 19 63 -8 46 -40 8 -86 -46 -55 -14 8 -34 12
-43 9 -16 -6 -16 -9 5 -28 59 -55 158 -34 158 34 0 38 -60 93 -101 93 -19 0
-41 -5 -49 -10 -11 -7 -17 -5 -22 8 -14 35 -8 41 40 44 34 2 47 7 47 18 0 16
-45 21 -117 13z"/>
<path d="M3130 7530 c-25 -3 -44 -8 -42 -12 1 -5 2 -12 2 -18 0 -11 65 -12 93
-2 14 6 15 10 5 23 -10 11 -25 13 -58 9z"/>
<path d="M2152 7504 c-20 -14 -30 -53 -16 -66 11 -11 42 4 47 23 6 22 46 26
65 7 19 -19 14 -47 -18 -104 -30 -54 -31 -84 -1 -84 21 0 145 20 148 24 2 2 1
11 -3 20 -5 13 -15 15 -55 10 -27 -4 -49 -4 -49 0 0 3 9 23 20 43 27 52 25 79
-9 114 -34 33 -91 40 -129 13z"/>
<path d="M1945 7476 c-37 -27 -11 -129 47 -184 46 -42 126 -47 150 -9 26 40
-15 146 -72 185 -37 25 -96 29 -125 8z m106 -47 c43 -43 62 -122 33 -133 -36
-14 -93 49 -101 114 -5 38 -4 40 21 40 14 0 35 -9 47 -21z"/>
<path d="M1762 7463 c-27 -5 -57 -47 -48 -68 7 -19 46 -20 46 -1 0 39 60 43
80 6 8 -14 2 -33 -23 -82 -33 -64 -37 -98 -12 -98 37 0 165 23 165 30 0 21
-31 31 -74 25 -25 -4 -46 -5 -46 -2 0 3 11 27 25 54 21 40 24 54 16 76 -17 43
-75 71 -129 60z"/>
<path d="M2622 7463 c-34 -3 -43 -8 -40 -21 4 -20 36 -26 84 -17 30 5 33 8 24
25 -6 11 -14 19 -18 18 -4 -1 -26 -3 -50 -5z"/>
<path d="M2677 6806 c-20 -29 -10 -42 15 -19 10 9 19 14 21 12 1 -2 20 -41 42
-86 21 -46 45 -83 52 -83 7 0 13 2 13 5 0 3 -21 48 -47 100 -50 101 -68 114
-96 71z"/>
<path d="M2512 6798 c-17 -17 -15 -48 3 -48 8 0 15 9 15 20 0 15 7 20 28 20
15 0 33 -5 40 -12 19 -19 14 -49 -8 -55 -34 -9 -22 -23 19 -23 42 0 65 -18 59
-47 -4 -24 -60 -30 -78 -9 -7 9 -20 16 -29 16 -12 -1 -9 -7 12 -25 46 -41 127
-27 127 21 0 17 -44 64 -60 64 -7 0 -9 8 -5 20 9 29 -35 70 -78 70 -18 0 -38
-5 -45 -12z"/>
<path d="M2260 6760 c-24 -45 47 -170 105 -184 31 -8 61 7 70 33 9 28 -32 117
-67 146 -37 32 -92 34 -108 5z m88 -16 c25 -18 62 -84 62 -112 0 -31 -23 -45
-53 -31 -42 19 -93 130 -70 152 11 12 37 8 61 -9z"/>
<path d="M2132 6737 c-13 -14 -18 -27 -13 -36 7 -10 12 -8 23 8 15 21 17 18
58 -68 26 -55 47 -88 55 -85 8 4 -3 36 -36 105 -27 54 -52 99 -57 99 -5 0 -18
-10 -30 -23z"/>
<path d="M2435 6740 c-3 -6 1 -13 10 -16 19 -8 30 0 20 15 -8 14 -22 14 -30 1z"/>
<path d="M2472 6648 c3 -7 13 -15 22 -16 12 -3 17 1 14 10 -3 7 -13 15 -22 16
-12 3 -17 -1 -14 -10z"/>
<path d="M4713 6372 c53 -100 73 -129 82 -120 3 3 -1 18 -11 32 -24 38 -10 43
35 11 22 -15 45 -25 51 -23 6 2 -10 18 -35 36 -26 18 -45 38 -42 45 17 46 19
59 6 55 -8 -2 -18 -19 -24 -36 -5 -18 -12 -32 -15 -32 -3 0 -19 25 -35 55 -17
30 -35 55 -42 55 -7 0 6 -34 30 -78z"/>
<path d="M4572 6429 c2 -7 10 -15 17 -17 8 -3 12 1 9 9 -2 7 -10 15 -17 17 -8
3 -12 -1 -9 -9z"/>
<path d="M4667 6353 c51 -96 60 -110 69 -101 9 9 -89 188 -104 188 -7 0 7 -36
35 -87z"/>
<path d="M4600 6385 c0 -15 72 -145 80 -145 6 0 10 3 10 6 0 14 -73 144 -81
144 -5 0 -9 -2 -9 -5z"/>
<path d="M4492 6354 c-6 -11 -11 -13 -16 -5 -9 13 -53 15 -61 1 -3 -5 -12 -7
-20 -3 -21 7 -19 2 17 -72 18 -36 38 -65 45 -65 9 0 5 16 -13 51 -27 55 -26
79 5 79 14 0 29 -18 52 -60 17 -33 36 -60 40 -60 13 0 12 6 -17 62 -16 33 -22
54 -16 60 21 21 48 1 77 -54 17 -32 36 -58 43 -58 13 0 -28 91 -56 123 -19 22
-68 22 -80 1z"/>
<path d="M4196 6314 c-22 -21 -9 -40 13 -20 22 20 45 20 61 1 15 -18 14 -19
-25 -32 -38 -12 -45 -45 -13 -67 26 -18 64 -21 73 -6 4 6 16 8 26 5 18 -6 17
-1 -10 54 -40 79 -87 103 -125 65z m104 -85 c0 -24 -27 -36 -49 -22 -24 15
-19 36 9 43 31 8 40 4 40 -21z"/>
<path d="M4054 6274 c4 -22 10 -52 13 -67 5 -25 0 -22 -50 30 -31 32 -59 54
-63 50 -4 -4 22 -38 59 -75 70 -71 77 -85 51 -100 -10 -5 -12 -12 -7 -15 6 -4
18 -1 28 7 16 12 17 19 4 106 -9 60 -19 95 -28 98 -11 4 -12 -4 -7 -34z"/>
<path d="M3618 6293 c-15 -4 -11 -18 32 -102 l49 -98 50 8 c63 10 71 14 71 43
0 22 -37 66 -56 66 -6 0 -9 13 -6 29 3 21 -2 33 -19 45 -22 15 -81 20 -121 9z
m110 -25 c29 -29 8 -58 -41 -58 -22 0 -62 52 -49 64 10 11 78 6 90 -6z m36
-79 c51 -24 33 -69 -28 -69 -18 0 -30 9 -41 30 -20 38 -20 38 13 43 15 2 28 5
29 6 1 0 13 -4 27 -10z"/>
<path d="M3915 6237 c28 -50 32 -85 10 -94 -21 -8 -52 23 -81 80 -13 26 -29
47 -34 47 -15 0 -13 -7 26 -75 19 -35 44 -67 55 -70 23 -8 59 3 59 17 0 6 6 6
15 -2 30 -25 26 0 -11 69 -21 39 -44 71 -52 71 -9 0 -5 -13 13 -43z"/>
<path d="M4682 5207 c-25 -26 -27 -38 -10 -55 9 -9 16 -8 29 4 15 14 20 9 63
-70 32 -58 53 -86 65 -86 10 0 20 2 23 5 3 3 -20 54 -51 113 -62 117 -80 130
-119 89z"/>
<path d="M4493 5185 c-65 -47 20 -209 116 -222 76 -10 105 52 62 135 -43 84
-127 124 -178 87z m106 -60 c46 -53 56 -116 18 -123 -24 -5 -54 23 -78 70 -44
85 -1 122 60 53z"/>
<path d="M4202 5141 c-13 -3 -31 -18 -39 -33 -14 -22 -14 -29 -4 -42 12 -14
15 -13 30 6 17 21 18 19 65 -71 44 -86 67 -107 89 -84 6 6 -95 208 -112 224
-3 3 -16 3 -29 0z"/>
<path d="M4022 5097 c-24 -26 -26 -35 -12 -57 7 -12 12 -12 29 4 19 18 20 17
65 -72 41 -82 47 -89 70 -85 l25 5 -57 114 c-62 124 -78 136 -120 91z"/>
<path d="M3695 5058 c-27 -5 -51 -11 -52 -12 -2 -2 8 -32 21 -67 21 -55 28
-64 47 -61 13 1 27 9 32 17 11 19 37 19 65 -1 31 -22 27 -68 -7 -72 -13 -2
-28 1 -34 7 -6 6 -25 11 -42 11 l-30 -1 33 -29 c43 -39 101 -42 137 -5 14 13
25 30 25 38 0 28 -46 82 -82 95 -32 12 -41 12 -66 -1 -29 -14 -31 -13 -36 7
-9 34 -8 35 44 42 39 5 50 10 48 23 -4 19 -36 22 -103 9z"/>
<path d="M4368 5053 c-30 -5 -33 -10 -19 -32 13 -20 115 -5 107 16 -3 8 -6 17
-6 19 0 5 -41 3 -82 -3z"/>
<path d="M3463 5015 c-15 -10 -23 -27 -23 -46 0 -24 4 -29 25 -29 18 0 25 5
25 19 0 26 15 34 45 27 39 -10 41 -45 6 -114 -31 -61 -32 -92 -4 -92 18 0 146
22 151 26 2 1 1 11 -2 22 -6 17 -11 19 -44 11 -70 -16 -72 -14 -46 38 30 58
30 85 1 118 -29 34 -100 45 -134 20z"/>
<path d="M3247 4975 c-39 -38 -5 -152 59 -201 65 -50 154 -26 154 42 0 33 -42
113 -74 143 -33 31 -115 41 -139 16z m105 -42 c18 -20 42 -67 52 -99 9 -28
-16 -54 -45 -47 -38 10 -90 111 -75 148 7 20 49 19 68 -2z"/>
<path d="M3938 4983 c-38 -4 -48 -19 -27 -40 9 -9 95 1 108 13 7 6 -21 34 -33
32 -6 -1 -28 -3 -48 -5z"/>
<path d="M3060 4953 c-39 -15 -65 -65 -45 -85 11 -10 54 4 49 16 -9 23 24 40
50 28 39 -17 40 -44 6 -112 -19 -38 -29 -69 -25 -81 7 -20 28 -20 138 5 43 10
47 13 35 29 -11 15 -20 16 -63 8 -27 -5 -51 -8 -52 -7 -1 1 9 24 22 51 31 64
31 78 -2 115 -28 31 -81 46 -113 33z"/>
<path d="M5200 4714 c-614 -116 -597 -112 -632 -147 -28 -28 -30 -35 -26 -86
4 -46 18 -80 77 -185 39 -72 83 -143 98 -159 38 -40 119 -77 169 -77 36 0 915
173 1015 200 66 18 106 87 88 153 -12 46 -135 265 -168 300 -14 16 -44 38 -66
49 -73 38 -128 33 -555 -48z m338 -156 c3 -13 -3 -18 -22 -18 -27 0 -41 14
-31 31 10 16 49 6 53 -13z m-168 -47 c12 -29 12 -29 41 -13 26 15 31 16 56 2
36 -20 73 -76 73 -110 0 -38 -23 -54 -65 -47 -19 3 -35 2 -35 -4 0 -5 -8 -9
-18 -9 -12 0 -32 28 -65 95 -26 52 -47 99 -47 104 0 10 30 20 41 14 4 -1 12
-16 19 -32z m350 24 c16 -8 35 -25 41 -36 14 -26 4 -34 -53 -43 -34 -6 -38 -9
-28 -21 16 -19 49 -19 56 0 7 16 39 21 48 7 9 -14 -22 -49 -49 -56 -54 -14
-135 51 -135 108 0 50 62 71 120 41z m-126 -86 c21 -39 36 -72 34 -74 -1 -2
-12 -5 -23 -7 -16 -2 -28 11 -57 67 -21 39 -38 73 -38 78 0 4 10 7 23 7 19 0
31 -14 61 -71z m-400 24 c15 -32 19 -35 27 -20 17 29 67 21 105 -17 28 -28 34
-42 34 -75 0 -49 -27 -70 -66 -52 -15 6 -24 7 -24 1 0 -6 -10 -10 -23 -10 -19
0 -31 17 -70 96 -38 75 -45 99 -35 105 23 15 34 10 52 -28z m-354 -63 c12 -29
30 -41 30 -20 0 18 76 11 92 -7 14 -16 68 -116 68 -127 0 -2 -11 -6 -24 -8
-20 -4 -27 3 -50 49 -27 56 -49 74 -68 55 -8 -8 -4 -26 15 -63 28 -56 27 -69
-3 -69 -15 0 -32 25 -70 100 -27 55 -50 104 -50 110 0 5 11 10 24 10 17 0 27
-9 36 -30z m299 -1 c13 -12 30 -37 38 -56 12 -31 12 -38 -1 -58 -44 -68 -176
-8 -176 81 0 40 19 53 76 54 28 0 47 -7 63 -21z"/>
<path d="M5410 4442 c0 -26 29 -62 50 -62 28 0 33 16 15 50 -18 35 -65 44 -65
12z"/>
<path d="M5650 4494 c0 -12 6 -15 23 -10 12 3 26 6 30 6 5 0 5 5 2 10 -10 17
-55 12 -55 -6z"/>
<path d="M5236 4421 c-8 -13 8 -54 28 -70 21 -17 46 -7 46 19 0 37 -58 77 -74
51z"/>
<path d="M5062 4391 c-19 -12 -4 -59 25 -78 18 -12 27 -13 35 -5 26 26 -30
102 -60 83z"/>
<path d="M3964 4275 c-15 -23 -12 -45 7 -45 5 0 9 9 9 19 0 41 71 34 85 -8 3
-10 -4 -42 -15 -70 -11 -29 -20 -61 -20 -73 0 -18 4 -20 33 -14 17 4 49 9 69
13 56 8 34 26 -23 19 -54 -7 -56 -5 -34 47 21 52 19 84 -10 112 -33 33 -79 33
-101 0z"/>
<path d="M3802 4258 c-13 -13 -17 -58 -4 -58 4 0 12 10 17 23 13 29 46 33 69
8 15 -17 16 -23 6 -36 -7 -8 -19 -15 -27 -15 -8 0 -13 -6 -10 -12 2 -7 12 -12
22 -10 50 9 100 -33 74 -64 -13 -16 -65 -19 -74 -4 -3 6 -14 10 -23 10 -14 -1
-13 -4 7 -20 26 -22 90 -27 109 -8 27 27 0 98 -38 98 -16 0 -18 5 -14 29 5 21
1 34 -15 50 -23 23 -80 28 -99 9z"/>
<path d="M3600 4227 c-25 -5 -46 -10 -48 -12 -2 -2 4 -28 14 -59 17 -55 36
-71 48 -41 9 25 63 19 82 -10 23 -36 15 -60 -21 -59 -17 1 -41 5 -55 9 l-25 7
24 -21 c34 -30 67 -36 96 -17 32 21 32 56 -1 95 -21 25 -33 31 -65 31 -24 0
-39 -5 -39 -12 0 -20 -17 4 -24 34 -6 26 -4 28 34 34 37 6 51 17 33 27 -5 2
-28 -1 -53 -6z"/>
<path d="M3434 4175 c-21 -32 -7 -56 16 -26 16 22 17 21 59 -68 37 -80 61
-112 61 -81 0 22 -95 200 -107 200 -7 0 -20 -11 -29 -25z"/>
<path d="M3725 4191 c-7 -12 12 -24 25 -16 11 7 4 25 -10 25 -5 0 -11 -4 -15
-9z"/>
<path d="M6780 4054 c56 -105 66 -121 75 -112 9 8 -99 201 -115 206 -7 3 11
-40 40 -94z"/>
<path d="M6670 4133 c0 -5 9 -22 19 -39 11 -17 36 -63 56 -103 20 -39 41 -71
46 -71 15 0 11 8 -47 116 -47 90 -74 124 -74 97z"/>
<path d="M3772 4098 c6 -18 28 -21 28 -4 0 9 -7 16 -16 16 -9 0 -14 -5 -12
-12z"/>
<path d="M6381 4064 c16 -36 90 -173 103 -189 14 -18 15 -18 16 -2 0 14 3 15
19 5 15 -9 25 -9 45 0 41 18 32 66 -22 125 -29 30 -72 36 -92 12 -11 -13 -15
-11 -30 17 -14 28 -49 56 -39 32z m154 -81 c32 -35 32 -86 -1 -91 -39 -6 -94
85 -67 111 14 15 43 6 68 -20z"/>
<path d="M6592 4048 c-14 -14 -16 -38 -3 -38 5 0 11 7 15 15 8 21 40 19 61 -5
18 -19 17 -20 -13 -26 -48 -10 -59 -29 -35 -62 23 -31 64 -40 85 -18 11 11 18
12 26 4 40 -40 -8 71 -51 120 -22 24 -66 29 -85 10z m103 -98 c0 -28 -27 -39
-50 -20 -20 17 -19 38 3 43 33 9 47 2 47 -23z"/>
<path d="M6314 4023 c4 -9 1 -20 -6 -25 -10 -6 -7 -10 9 -14 12 -3 25 -14 28
-23 13 -43 66 -111 85 -111 25 0 26 16 1 23 -11 2 -31 28 -45 56 -30 59 -31
61 -10 61 8 0 12 5 9 11 -4 6 -13 8 -21 5 -8 -3 -20 3 -26 14 -15 24 -33 27
-24 3z"/>
<path d="M6010 3994 c0 -18 107 -204 118 -204 9 0 9 8 -3 31 -23 43 -13 47 35
15 23 -15 49 -26 57 -24 10 2 -4 17 -40 41 l-57 37 14 35 c13 29 13 35 1 35
-7 0 -20 -19 -28 -42 l-14 -43 -32 63 c-17 34 -36 62 -41 62 -6 0 -10 -3 -10
-6z"/>
<path d="M6192 3968 c-29 -29 8 -110 62 -137 32 -15 72 -3 83 24 9 26 -6 30
-27 7 -26 -27 -31 -27 -65 0 -26 20 -26 22 -9 29 10 4 34 8 52 8 40 1 41 18 4
54 -30 29 -79 36 -100 15z m84 -25 c16 -17 15 -18 -21 -25 -27 -6 -41 -5 -46
3 -22 36 35 54 67 22z"/>
<path d="M5938 3919 c-40 -23 -1 -79 55 -79 41 0 62 -13 54 -34 -7 -18 -52
-22 -62 -6 -4 6 -11 7 -17 4 -17 -10 21 -34 53 -34 26 0 59 22 59 39 0 24 -32
45 -76 50 -36 5 -50 11 -52 24 -4 22 25 34 48 19 24 -15 34 -2 12 14 -20 16
-51 17 -74 3z"/>
<path d="M5580 3904 c0 -7 100 -196 108 -204 3 -3 6 0 9 5 2 6 19 9 38 7 29
-3 36 0 46 21 31 67 -87 175 -132 121 -11 -14 -15 -11 -31 20 -16 31 -38 48
-38 30z m154 -85 c46 -54 27 -106 -30 -80 -31 14 -56 69 -43 93 15 27 44 22
73 -13z"/>
<path d="M5798 3889 c-18 -10 -25 -39 -9 -39 5 0 14 7 21 15 17 20 33 19 55
-5 17 -19 17 -20 -1 -26 -69 -22 -76 -32 -48 -72 19 -28 78 -31 93 -4 6 9 11
11 11 5 0 -7 7 -13 15 -13 12 0 9 13 -15 59 -41 81 -78 106 -122 80z m97 -99
c0 -20 -6 -26 -28 -28 -35 -4 -49 25 -21 45 27 20 49 12 49 -17z"/>
<path d="M5278 3834 c-5 -4 -2 -14 5 -22 9 -12 9 -16 0 -19 -19 -7 -16 -23 5
-23 11 0 25 -19 41 -56 24 -56 51 -80 77 -70 19 7 8 26 -15 26 -11 0 -27 20
-44 55 -21 43 -24 55 -12 55 8 0 15 5 15 10 0 6 -8 10 -19 10 -10 0 -25 9 -32
21 -8 11 -17 17 -21 13z"/>
<path d="M5401 3802 c-25 -46 40 -142 96 -142 16 0 34 5 41 12 26 26 4 102
-40 132 -31 22 -85 21 -97 -2z m107 -41 c25 -39 25 -59 0 -75 -35 -22 -101 55
-85 98 11 29 58 16 85 -23z"/>
<path d="M4873 3765 c-30 -21 -30 -67 0 -120 68 -120 213 -109 181 13 -6 20
-12 23 -48 20 -23 -2 -39 -7 -36 -13 3 -5 18 -9 33 -7 26 2 28 0 25 -29 -4
-46 -28 -57 -73 -36 -65 31 -101 132 -55 157 23 12 64 4 81 -16 6 -8 19 -14
27 -14 13 0 10 6 -9 26 -33 33 -95 42 -126 19z"/>
<path d="M5082 3748 c-40 -40 21 -148 83 -148 54 0 71 41 40 100 -27 53 -93
78 -123 48z m96 -48 c28 -42 26 -74 -6 -78 -28 -4 -56 18 -72 59 -28 67 35 83
78 19z"/>
<path d="M8365 3109 c-203 -43 -382 -84 -397 -90 -37 -15 -61 -55 -62 -104 -1
-31 13 -66 63 -157 35 -64 78 -131 95 -149 40 -41 100 -69 152 -69 22 0 157
27 300 60 142 34 320 75 394 91 149 34 172 44 196 91 23 45 13 83 -53 200 -70
123 -100 160 -157 187 -67 33 -130 26 -531 -60z m193 -131 c18 -18 14 -28 -12
-28 -13 0 -26 6 -29 14 -10 26 19 36 41 14z m317 -29 c25 -25 28 -31 15 -39
-8 -5 -24 -10 -35 -10 -11 0 -26 -4 -34 -9 -11 -7 -10 -11 7 -20 16 -9 24 -8
36 4 21 21 46 19 46 -5 0 -23 -28 -40 -65 -40 -41 0 -95 59 -95 102 0 64 69
73 125 17z m-136 -42 c6 -35 11 -71 11 -80 0 -33 -38 -16 -95 44 -46 48 -55
63 -44 70 22 14 24 12 63 -38 39 -50 42 -49 25 10 -11 40 -6 57 16 57 8 0 17
-23 24 -63z m-249 33 c6 -11 17 -20 25 -20 19 0 30 -21 15 -30 -18 -11 24 -88
47 -86 10 0 18 -6 18 -14 0 -10 -12 -16 -32 -18 -29 -3 -34 1 -54 40 -12 24
-33 53 -48 65 -14 12 -20 22 -13 23 9 0 11 7 7 20 -12 38 16 55 35 20z m132
-79 c33 -63 34 -70 17 -74 -10 -3 -22 0 -27 7 -8 9 -58 101 -70 129 -2 4 7 7
20 7 18 0 30 -14 60 -69z m-318 -32 c58 -67 75 -93 66 -99 -16 -10 -37 -3 -44
16 -6 14 -42 19 -70 8 -10 -4 -16 -18 -16 -35 0 -22 -5 -29 -20 -29 -11 0 -20
5 -20 11 0 6 -5 53 -11 106 -10 79 -9 97 2 104 25 16 33 10 113 -82z m143 45
l28 -25 -42 5 c-49 7 -60 -4 -43 -44 16 -38 41 -47 59 -21 18 28 41 27 41 -2
0 -32 -18 -47 -58 -47 -72 0 -124 107 -70 144 32 22 53 20 85 -10z"/>
<path d="M8790 2934 c0 -12 6 -15 23 -10 12 3 27 6 32 6 6 0 3 5 -5 10 -23 15
-50 12 -50 -6z"/>
<path d="M8226 2830 c9 -44 10 -45 34 -34 20 9 20 10 -10 39 l-30 29 6 -34z"/>
<path d="M5942 2654 c-31 -21 -30 -64 2 -64 15 0 26 7 29 20 6 24 48 27 67 5
15 -18 6 -45 -15 -45 -8 0 -15 -9 -15 -20 0 -17 7 -20 39 -20 42 0 65 -18 59
-47 -4 -24 -43 -28 -73 -9 -23 15 -55 13 -55 -4 0 -19 45 -43 87 -47 39 -4 52
-1 71 17 12 11 22 32 22 46 0 27 -40 74 -64 74 -11 0 -13 8 -9 33 4 28 1 37
-22 55 -33 26 -91 29 -123 6z"/>
<path d="M5751 2611 c-29 -29 -26 -75 7 -136 47 -86 131 -121 180 -75 28 26
28 53 -2 115 -31 67 -74 105 -124 112 -32 4 -44 1 -61 -16z m105 -53 c57 -69
67 -138 19 -138 -29 0 -71 48 -86 100 -22 73 18 96 67 38z"/>
<path d="M5480 2553 c-8 -2 -23 -15 -33 -28 -14 -20 -16 -29 -6 -47 l11 -21
18 23 18 24 46 -92 c40 -79 50 -92 71 -92 14 0 25 2 25 5 0 16 -116 235 -125
234 -5 -1 -17 -3 -25 -6z"/>
<path d="M5333 2520 c-28 -11 -46 -45 -38 -70 8 -26 21 -25 36 2 11 20 15 15
60 -74 44 -88 50 -95 74 -91 l25 5 -62 119 c-35 66 -65 119 -68 118 -3 0 -15
-4 -27 -9z"/>
<path d="M5650 2473 c-35 -6 -42 -16 -28 -36 11 -14 20 -15 61 -6 36 8 47 15
43 26 -3 8 -6 17 -6 19 0 5 -34 3 -70 -3z"/>
<path d="M5005 2453 c-32 -8 -61 -15 -63 -17 -1 -2 9 -33 24 -70 28 -70 43
-79 71 -46 34 39 99 10 91 -42 -3 -25 -42 -38 -61 -19 -13 13 -57 15 -57 2 0
-5 12 -19 26 -30 38 -30 98 -28 129 4 29 29 30 36 9 81 -27 57 -104 83 -139
48 -19 -19 -21 -18 -30 18 -7 26 -5 28 33 34 51 8 64 17 56 37 -7 20 -9 20
-89 0z"/>
<path d="M4800 2413 c-31 -12 -50 -37 -50 -65 0 -23 4 -28 25 -28 20 0 25 5
25 24 0 32 35 41 61 15 25 -25 24 -33 -11 -107 -22 -47 -27 -68 -20 -81 9 -17
13 -17 90 -2 82 16 87 20 73 46 -7 11 -17 12 -52 4 -24 -5 -46 -7 -49 -5 -2 3
5 28 17 56 24 56 21 87 -13 119 -23 22 -71 34 -96 24z"/>
<path d="M5233 2378 c-45 -10 -49 -14 -34 -37 6 -9 20 -11 47 -7 51 9 66 19
58 39 -7 19 -10 19 -71 5z"/>
<path d="M4560 2350 c-26 -26 -25 -64 4 -125 31 -68 76 -105 127 -105 83 0
101 69 44 166 -46 78 -130 109 -175 64z m105 -46 c29 -31 60 -107 52 -129 -8
-20 -50 -19 -69 3 -31 34 -60 104 -54 128 8 32 40 31 71 -2z"/>
<path d="M4372 2314 c-32 -13 -50 -50 -39 -78 8 -21 45 -8 49 18 3 24 41 34
64 16 21 -18 17 -52 -11 -116 -29 -65 -26 -99 9 -90 12 3 46 10 76 17 30 6 59
14 63 18 13 13 -4 42 -22 37 -9 -3 -33 -8 -54 -12 l-37 -6 20 43 c24 55 25
100 3 128 -24 30 -82 42 -121 25z"/>
<path d="M6375 2135 c-192 -45 -360 -87 -372 -94 -31 -16 -53 -62 -53 -112 0
-32 16 -72 72 -177 83 -158 119 -201 190 -232 42 -18 64 -21 113 -17 72 6 676
152 724 175 44 21 75 86 65 139 -9 55 -141 292 -186 335 -40 39 -117 69 -172
67 -17 -1 -188 -38 -381 -84z m451 64 c69 -18 124 -76 198 -210 74 -134 90
-181 76 -228 -11 -40 -25 -58 -60 -76 -42 -22 -691 -175 -741 -175 -59 0 -140
40 -177 88 -16 20 -59 95 -96 165 -78 151 -85 195 -38 247 26 30 44 35 387
115 198 46 370 84 383 84 13 1 43 -4 68 -10z"/>
<path d="M6675 2005 c-19 -16 -19 -16 3 -5 33 16 46 8 62 -39 15 -48 22 -50
38 -16 6 14 18 25 26 25 8 0 17 4 21 10 3 5 -6 5 -24 -1 -16 -6 -31 -18 -33
-27 -2 -11 -10 -4 -23 23 -22 45 -41 53 -70 30z"/>
<path d="M6674 1969 c5 -19 -35 -42 -58 -33 -8 3 -23 1 -33 -6 -16 -10 -14
-10 9 -6 16 4 28 1 30 -6 3 -9 10 -8 22 5 19 18 46 23 46 8 0 -5 3 -16 6 -25
4 -12 0 -16 -15 -16 -32 0 -35 -23 -11 -69 22 -44 20 -61 -9 -61 -13 0 -29 23
-54 78 -20 42 -36 69 -37 59 0 -17 -2 -17 -22 -3 -31 22 -71 20 -99 -5 l-24
-21 25 16 c52 34 118 6 146 -60 16 -37 6 -77 -21 -88 -57 -22 -127 18 -140 80
-10 47 -20 59 -51 60 -26 2 -27 1 -3 -3 24 -4 28 -11 44 -84 9 -43 19 -79 22
-79 2 0 1 14 -2 32 l-7 32 32 -27 c20 -17 43 -27 64 -27 37 0 76 24 76 47 0
15 2 14 18 0 23 -21 46 -22 61 -3 9 10 7 24 -8 57 -21 47 -21 54 8 62 15 3 23
-6 41 -49 19 -47 25 -54 48 -53 25 2 25 2 4 6 -18 3 -30 19 -48 61 -29 68 -67
143 -60 121z"/>
<path d="M6821 1933 c-12 -25 -10 -29 16 -51 15 -13 42 -32 58 -43 l30 -21
-25 24 c-14 12 -38 33 -53 45 -24 19 -27 25 -17 43 6 12 10 24 7 26 -2 2 -9
-8 -16 -23z"/>
<path d="M6278 1853 c-10 -2 -18 -14 -18 -26 -1 -20 -2 -21 -14 -4 -16 20 -36
22 -60 4 -16 -12 -12 -19 44 -90 34 -42 66 -77 72 -77 25 0 48 23 48 48 l0 26
16 -22 c11 -16 24 -22 47 -20 l32 1 -32 4 c-18 2 -33 7 -33 11 0 4 -14 23 -29
42 l-29 35 11 -48 c9 -40 8 -50 -4 -58 -25 -15 -33 -10 -91 63 -41 51 -54 74
-45 80 23 15 37 8 63 -32 15 -22 28 -39 30 -37 2 2 -1 20 -7 41 -8 30 -8 41 3
47 24 16 38 9 69 -33 29 -41 30 -41 23 -13 -4 17 -11 39 -15 50 -7 19 -8 19
-8 1 -1 -18 -2 -18 -19 -3 -19 17 -24 18 -54 10z"/>
<path d="M6486 1851 c-8 -12 12 -63 27 -73 22 -14 37 -8 37 15 0 43 -47 86
-64 58z m54 -53 c0 -11 -5 -18 -12 -16 -16 6 -39 49 -31 61 8 13 43 -24 43
-45z"/>
<path d="M6790 1848 c0 -8 7 -23 15 -34 13 -16 14 -16 9 -1 -8 21 2 22 22 2 9
-8 27 -14 42 -14 26 2 26 2 3 6 -14 3 -40 16 -58 30 -23 18 -33 21 -33 11z"/>
<path d="M5343 1669 c-19 -7 -23 -16 -23 -49 0 -78 67 -170 124 -170 61 0 72
41 32 125 -35 75 -87 112 -133 94z m91 -66 c38 -54 43 -126 10 -131 -42 -6
-118 117 -100 163 11 30 57 14 90 -32z"/>
<path d="M5168 1629 c-25 -14 -23 -64 6 -125 27 -58 67 -94 105 -94 58 0 67
54 25 139 -37 73 -92 106 -136 80z m60 -23 c28 -14 82 -106 82 -137 0 -29 -27
-43 -55 -31 -48 22 -100 137 -75 167 15 18 15 18 48 1z"/>
<path d="M4910 1565 c-20 -24 -4 -80 31 -109 37 -32 73 -33 93 -4 16 23 15 24
31 -27 8 -27 -6 -45 -35 -45 -16 0 -32 5 -35 10 -3 6 -14 10 -23 10 -23 -1 33
-50 56 -50 31 0 62 29 62 58 0 39 -43 125 -75 150 -32 25 -87 29 -105 7z m99
-31 c27 -34 27 -60 0 -75 -40 -21 -93 40 -75 87 9 23 53 16 75 -12z"/>
<path d="M4758 1539 c-39 -22 -1 -152 57 -197 30 -24 74 -29 93 -10 35 35 -17
172 -78 203 -34 17 -48 18 -72 4z m61 -24 c29 -14 81 -102 81 -136 0 -24 -26
-42 -50 -34 -44 14 -99 130 -79 166 12 23 13 23 48 4z"/>
<path d="M5086 1541 c-3 -5 1 -14 8 -20 16 -13 32 2 21 19 -8 12 -22 13 -29 1z"/>
<path d="M7720 1531 c5 -11 7 -27 4 -35 -4 -10 -1 -16 8 -16 8 0 27 -27 43
-61 31 -65 47 -79 76 -72 22 6 15 23 -10 23 -20 0 -79 112 -62 118 18 6 12 22
-8 22 -11 0 -23 9 -26 20 -3 11 -13 20 -21 20 -11 0 -12 -4 -4 -19z"/>
<path d="M7660 1474 c0 -14 -3 -14 -15 -4 -11 9 -15 9 -15 1 0 -20 70 -161 80
-161 14 0 13 5 -15 60 -28 56 -32 88 -10 96 22 9 18 24 -5 24 -12 0 -20 -7
-20 -16z"/>
<path d="M5132 1444 c1 -9 9 -19 16 -22 9 -3 13 2 10 14 -1 9 -9 19 -16 22 -9
3 -13 -2 -10 -14z"/>
<path d="M7499 1426 c-16 -35 19 -109 62 -131 39 -21 75 -8 85 29 7 29 -27
101 -55 116 -36 19 -80 12 -92 -14z m76 -2 c34 -14 61 -106 33 -117 -23 -8
-57 11 -72 42 -32 61 -14 95 39 75z"/>
<path d="M7359 1399 c-17 -17 -23 -19 -30 -8 -4 7 -11 11 -14 7 -5 -5 87 -201
101 -217 2 -2 7 -1 11 2 4 4 -1 23 -10 42 l-16 34 29 -6 c77 -15 80 86 4 146
-34 26 -49 26 -75 0z m74 -27 c22 -24 38 -69 31 -87 -9 -21 -50 -19 -74 5 -22
22 -35 63 -26 85 7 20 49 19 69 -3z"/>
<path d="M7208 1369 c-13 -7 -18 -23 -18 -50 0 -33 7 -48 34 -75 50 -50 116
-44 116 10 0 19 -1 19 -23 -2 -29 -27 -49 -28 -72 -2 -22 24 -20 27 30 38 47
9 53 22 23 56 -27 29 -65 40 -90 25z m72 -34 c16 -20 11 -24 -34 -32 -31 -5
-36 -3 -36 14 0 11 3 23 7 26 12 12 50 7 63 -8z"/>
<path d="M7117 1340 c-11 -15 -16 -18 -20 -8 -2 7 -8 9 -13 5 -10 -9 61 -157
76 -157 14 0 13 5 -15 60 -30 60 -31 80 -5 87 12 3 19 10 17 16 -6 20 -25 18
-40 -3z"/>
<path d="M6820 1335 c0 -19 107 -215 117 -215 9 0 3 20 -17 59 -30 61 -31 85
-3 95 22 9 50 -20 80 -81 15 -29 30 -53 35 -53 12 0 11 5 -26 79 -43 84 -77
103 -113 61 -16 -19 -17 -18 -34 20 -10 22 -23 40 -29 40 -5 0 -10 -2 -10 -5z"/>
<path d="M6622 1278 c6 -18 28 -21 28 -4 0 9 -7 16 -16 16 -9 0 -14 -5 -12
-12z"/>
<path d="M6736 1244 c-20 -19 -20 -24 0 -52 10 -15 25 -22 49 -22 46 0 65 -9
65 -30 0 -22 -37 -37 -53 -21 -6 6 -18 11 -26 11 -22 -1 26 -40 48 -40 22 0
61 28 61 44 0 29 -29 50 -76 55 -40 5 -49 10 -49 26 0 17 6 20 40 18 37 -2 39
-1 21 12 -26 19 -61 19 -80 -1z"/>
<path d="M6412 1228 c6 -18 28 -21 28 -4 0 9 -7 16 -16 16 -9 0 -14 -5 -12
-12z"/>
<path d="M6313 1212 l-52 -15 55 -108 c30 -60 59 -109 64 -109 14 0 13 5 -10
50 -11 22 -20 41 -20 43 0 2 18 9 40 16 51 15 54 36 4 27 -19 -4 -41 -9 -47
-12 -13 -4 -50 73 -39 80 4 2 24 6 45 10 22 4 37 12 35 18 -6 17 -18 17 -75 0z"/>
<path d="M6671 1188 c11 -24 27 -60 37 -80 9 -21 23 -38 30 -38 8 0 12 3 10 8
-33 77 -75 152 -85 152 -8 0 -6 -13 8 -42z"/>
<path d="M6544 1195 c-4 -10 -13 -13 -25 -10 -16 5 -13 -6 19 -74 20 -44 43
-80 50 -81 8 0 12 3 10 8 -49 101 -57 126 -46 139 23 28 52 10 85 -52 18 -33
34 -64 36 -70 2 -5 8 -7 12 -2 9 8 -30 98 -58 134 -21 27 -74 32 -83 8z"/>
<path d="M6440 1175 c0 -19 82 -165 90 -160 11 7 -66 165 -80 165 -6 0 -10 -2
-10 -5z"/>
</g>
</svg>
